<?xml version="1.0" ?><!DOCTYPE svg  PUBLIC '-//W3C//DTD SVG 1.1//EN'  'http://www.w3.org/Graphics/SVG/1.1/DTD/svg11.dtd'><svg height="135px" id="Layer_1" style="enable-background:new 0 0 135 135;" version="1.1" viewBox="0 0 135 135" width="135px" xml:space="preserve" xmlns="http://www.w3.org/2000/svg" xmlns:xlink="http://www.w3.org/1999/xlink"><style type="text/css">
<![CDATA[
	.st0{fill:#465652;}
	.st1{fill:#AAB9BA;}
	.st2{fill:#47C67B;}
	.st3{fill:#AAC8D1;}
	.st4{fill:none;stroke:#E83834;stroke-width:6;stroke-linecap:round;stroke-linejoin:round;stroke-miterlimit:10;}
	.st5{fill:#7BC67B;}
	.st6{fill:#7BC7FF;}
	.st7{fill:#7C34C1;}
	.st8{fill:#7C8D96;}
	.st9{fill:#AD2707;}
	.st10{fill:#ADB8BC;}
	.st11{fill:#107510;}
	.st12{fill:#7FE5D8;}
	.st13{fill:#AF4AD1;}
	.st14{fill:#E02B7E;}
	.st15{fill:#E04038;}
	.st16{fill:#AFD7DD;}
	.st17{fill:#E0A010;}
	.st18{fill:#E0D5A4;}
	.st19{fill:#12B2B2;}
	.st20{fill:#12D66B;}
	.st21{fill:#E1A9FF;}
	.st22{fill:#1362A8;}
	.st23{fill:#E2378D;}
	.st24{fill:#E29C37;}
	.st25{fill:#E2B90E;}
	.st26{fill:#E2BF91;}
	.st27{fill:#E2CBAA;}
	.st28{fill:#14A594;}
	.st29{fill:#E4E9ED;}
	.st30{fill:#4A5D60;}
	.st31{fill:#E5B076;}
	.st32{fill:#E5B1C4;}
	.st33{fill:#E5E4C3;}
	.st34{fill:#4B6466;}
	.st35{fill:#E6FF2E;}
	.st36{fill:#18AA67;}
	.st37{fill:#E86207;}
	.st38{fill:#E8A113;}
	.st39{fill:#E8B5A6;}
	.st40{fill:#E8E8ED;}
	.st41{fill:#4E5154;}
	.st42{fill:#E9F1F4;}
	.st43{fill:#4F4B48;}
	.st44{fill:#4F74E8;}
	.st45{fill:#808E93;}
	.st46{fill:#80949B;}
	.st47{fill:#80EDAC;}
	.st48{fill:#B122E0;}
	.st49{fill:#B2C4CC;}
	.st50{fill:#83D839;}
	.st51{fill:#B3C6C6;}
	.st52{fill:none;stroke:#33363A;stroke-width:3;stroke-linecap:round;stroke-linejoin:round;stroke-miterlimit:10;}
	.st53{fill:#1A8E1C;}
	.st54{fill:#1A93D6;}
	.st55{fill:#B50B0B;}
	.st56{fill:#1AD88F;}
	.st57{fill:#B5DAF4;}
	.st58{fill:#EA7B1F;}
	.st59{fill:#EA81BD;}
	.st60{fill:#87B8D6;}
	.st61{fill:#87C3F4;}
	.st62{fill:#EAC79D;}
	.st63{fill:#EADF11;}
	.st64{fill:#EAE4C5;}
	.st65{fill:#B78094;}
	.st66{fill:#8844D8;}
	.st67{fill:#EBF4F7;}
	.st68{fill:#893015;}
	.st69{fill:#89410B;}
	.st70{fill:#899BA3;}
	.st71{fill:#EDE3B9;}
	.st72{enable-background:new    ;}
	.st73{fill:#50FF9F;}
	.st74{fill:#EEDCF4;}
	.st75{fill:#EFA37D;}
	.st76{fill:#EFA3CC;}
	.st77{fill:#EFC99A;}
	.st78{fill:#54AF79;}
	.st79{fill:#BA503A;}
	.st80{fill:#BA8663;}
	.st81{fill:#8B4FE0;}
	.st82{fill:#58ED9B;}
	.st83{fill:#BC7DFF;}
	.st84{fill:#8D9AA3;}
	.st85{fill:#BCCAD3;}
	.st86{fill:#8DE4FF;}
	.st87{fill:#20B518;}
	.st88{fill:#BF44F2;}
	.st89{fill:#21CEA1;}
	.st90{fill:#BFDAE0;}
	.st91{fill:#F0FBFC;}
	.st92{fill:#F2D9A7;}
	.st93{fill:#F2EAC9;}
	.st94{fill:#24D1AF;}
	.st95{fill:#25931C;}
	.st96{fill:#F4C4B3;}
	.st97{fill:#F4D3A2;}
	.st98{fill:#F4D647;}
	.st99{fill:#F4D7B8;}
	.st100{fill:#F4EC8E;}
	.st101{fill:#5B524D;}
	.st102{fill:#F77819;}
	.st103{fill:#F79AE1;}
	.st104{fill:#5E707A;}
	.st105{fill:#F93585;}
	.st106{fill:#F95D5D;}
	.st107{fill:#F9C19B;}
	.st108{fill:#F9CB58;}
	.st109{fill:#F9D2B2;}
	.st110{fill:#F9F07D;}
	.st111{fill:#F9F1D2;}
	.st112{fill:#F9F4B7;}
	.st113{fill:#F9F9E4;}
	.st114{fill:#5F1DAA;}
	.st115{fill:#5F9AD6;}
	.st116{fill:#C0C0C4;}
	.st117{fill:#91EA57;}
	.st118{fill:#C12727;}
	.st119{fill:#C191A0;}
	.st120{fill:#923BB7;}
	.st121{fill:#93A0A3;}
	.st122{fill:#93F9EA;}
	.st123{fill:#93FF5A;}
	.st124{fill:#C4833D;}
	.st125{fill:#95A2A5;}
	.st126{fill:#965514;}
	.st127{fill:#96562C;}
	.st128{fill:#2AF42F;}
	.st129{fill:#C5D7DD;}
	.st130{fill:#C68510;}
	.st131{fill:#C6A86D;}
	.st132{fill:#C6BB8D;}
	.st133{fill:#2C9DCE;}
	.st134{fill:#FBFCF2;}
	.st135{fill:#FC70B0;}
	.st136{fill:#FCE6C8;}
	.st137{fill:#FCF7E3;}
	.st138{fill:#C90D6B;}
	.st139{fill:#FDFEFF;}
	.st140{fill:#FDFFDC;}
	.st141{fill:#FF1A1A;}
	.st142{fill:#FF5252;}
	.st143{fill:#FF5B00;}
	.st144{fill:#FF6155;}
	.st145{fill:#FF630D;}
	.st146{fill:#FF6666;}
	.st147{fill:#FF7676;}
	.st148{fill:#FF7900;}
	.st149{fill:#FF860D;}
	.st150{fill:#FF8B00;}
	.st151{fill:#FF8F8F;}
	.st152{fill:#FF900B;}
	.st153{fill:#FF908A;}
	.st154{fill:#FF960B;}
	.st155{fill:#FF9C0D;}
	.st156{fill:#FFA9D4;}
	.st157{fill:#FFAA00;}
	.st158{fill:#FFAD40;}
	.st159{fill:#FFAF10;}
	.st160{fill:#FFB000;}
	.st161{fill:#FFBE08;}
	.st162{fill:#FFBF31;}
	.st163{fill:#FFC200;}
	.st164{fill:#FFCAE8;}
	.st165{fill:#FFCCF5;}
	.st166{fill:#FFD00B;}
	.st167{fill:#FFD039;}
	.st168{fill:#FFD400;}
	.st169{fill:#FFD833;}
	.st170{fill:#FFDB80;}
	.st171{fill:#FFDDD2;}
	.st172{fill:#FFE6D4;}
	.st173{fill:#FFE6EB;}
	.st174{fill:#FFE98D;}
	.st175{fill:#FFECD2;}
	.st176{fill:#FFF1D9;}
	.st177{fill:#FFF24D;}
	.st178{fill:#FFF3C2;}
	.st179{fill:#FFF4C7;}
	.st180{fill:#FFF800;}
	.st181{fill:#FFF80D;}
	.st182{fill:#FFF9DE;}
	.st183{fill:#FFFBD7;}
	.st184{fill:#FFFBEB;}
	.st185{fill:#FFFCC0;}
	.st186{fill:#FFFCDC;}
	.st187{fill:#FFFFFA;}
	.st188{fill:#FFFFFF;}
	.st189{fill:#63797F;}
	.st190{fill:#65E529;}
	.st191{fill:#66310E;}
	.st192{fill:#663C17;}
	.st193{fill:#9A5AE5;}
	.st194{fill:#CA30EF;}
	.st195{fill:#6892FC;}
	.st196{fill:#9CFFC4;}
	.st197{fill:#CC4306;}
	.st198{fill:#CC549E;}
	.st199{fill:#9E3256;}
	.st200{fill:#CDFFBB;}
	.st201{fill:#CE86AF;}
	.st202{fill:#CED9DD;}
	
		.st203{fill:none;stroke:#33363A;stroke-width:3;stroke-linecap:round;stroke-linejoin:round;stroke-miterlimit:10;stroke-dasharray:6;}
	.st204{fill:#CFE1E2;}
	.st205{fill:#33363A;}
	.st206{fill:#34C166;}
	.st207{fill:#364B5B;}
	.st208{fill:#3662CE;}
	.st209{fill:#36C6FF;}
	.st210{fill:#6ADB9A;}
	.st211{fill:#6D5C4D;}
	.st212{fill:#6EBDF9;}
	.st213{fill:#0031FF;}
	.st214{fill:#0062FF;}
	.st215{fill:#0068FF;}
	.st216{fill:#0086FF;}
	.st217{fill:#009BE8;}
	.st218{fill:#00AAFF;}
	.st219{fill:#D271FF;}
	.st220{fill:#D363A9;}
	.st221{fill:#D3964C;}
	.st222{fill:#D3DFE2;}
	.st223{fill:#D3E0E2;}
	.st224{fill:#D3EFF4;}
	.st225{fill:#063B66;}
	.st226{fill:#D60909;}
	.st227{fill:#D61D1D;}
	.st228{fill:#D7F0FF;}
	.st229{fill:#09B285;}
	.st230{fill:#D8D593;}
	.st231{fill:#D8E2EA;}
	.st232{fill:#D8E5EA;}
	.st233{fill:#3E5054;}
	.st234{fill:#D988FF;}
	.st235{fill:#D9E7E8;}
	.st236{fill:#702252;}
	.st237{fill:#70D3E0;}
	.st238{fill:#A02FF2;}
	.st239{fill:#A2F255;}
	.st240{fill:#A35616;}
	.st241{fill:#A3CCCC;}
	.st242{fill:#0A6ADD;}
	.st243{fill:#A5145D;}
	.st244{fill:#A57555;}
	.st245{fill:#77D6FC;}
	.st246{fill:#7815CE;}
	.st247{fill:#A7BBC1;}
	.st248{fill:#DBD279;}
	.st249{fill:#0D5C9E;}
	.st250{fill:#A83C11;}
	.st251{fill:#A8633D;}
	.st252{fill:#A8A3E5;}
	.st253{fill:#DCE6EA;}
	.st254{fill:#DCE7EA;}
	.st255{fill:#A962E8;}
	.st256{fill:#DD2466;}
	.st257{fill:#DDC38A;}
	.st258{fill:#DDD2B1;}
	.st259{fill:#DFE7E8;}
	.st260{fill:#42B1E8;}
	.st261{fill:#436377;}
	.st262{fill:#43B530;}
]]>
</style><g><g><g><g><path class="st150" d="M39.91,127.93c0,1.197-0.971,2.167-2.168,2.167h-3.521c-1.197,0-2.167-0.97-2.167-2.167v-4.333      c0-1.197,0.97-2.166,2.167-2.166h3.521c1.197,0,2.168,0.969,2.168,2.166V127.93z"/></g><g><path class="st150" d="M74.345,127.93c0,1.197-0.97,2.167-2.167,2.167h-3.521c-1.197,0-2.168-0.97-2.168-2.167v-4.333      c0-1.197,0.971-2.166,2.168-2.166h3.521c1.197,0,2.167,0.969,2.167,2.166V127.93z"/></g></g><g><g><path class="st205" d="M37.742,131.597h-3.521c-2.022,0-3.667-1.645-3.667-3.667v-4.333c0-2.021,1.645-3.666,3.667-3.666h3.521      c2.022,0,3.668,1.645,3.668,3.666v4.333C41.41,129.952,39.765,131.597,37.742,131.597z M34.221,122.931      c-0.368,0-0.667,0.299-0.667,0.666v4.333c0,0.368,0.299,0.667,0.667,0.667h3.521c0.368,0,0.668-0.299,0.668-0.667v-4.333      c0-0.367-0.3-0.666-0.668-0.666H34.221z"/></g><g><path class="st205" d="M72.178,131.597h-3.521c-2.022,0-3.668-1.645-3.668-3.667v-4.333c0-2.021,1.646-3.666,3.668-3.666h3.521      c2.022,0,3.667,1.645,3.667,3.666v4.333C75.845,129.952,74.2,131.597,72.178,131.597z M68.656,122.931      c-0.368,0-0.668,0.299-0.668,0.666v4.333c0,0.368,0.3,0.667,0.668,0.667h3.521c0.368,0,0.667-0.299,0.667-0.667v-4.333      c0-0.367-0.299-0.666-0.667-0.666H68.656z"/></g></g><g><path class="st162" d="M27.223,26.013c2.445,7.152,7.277,12.813,13.298,16.404c2.562-6.527,2.916-13.957,0.471-21.113     c-2.446-7.15-7.279-12.812-13.299-16.401C25.131,11.427,24.776,18.861,27.223,26.013z"/></g><g><path class="st162" d="M79.176,26.013c-2.446,7.152-7.277,12.813-13.299,16.404c-2.561-6.527-2.916-13.957-0.47-21.113     c2.446-7.15,7.279-12.812,13.299-16.401C81.268,11.427,81.621,18.861,79.176,26.013z"/></g><g><path class="st150" d="M27.692,12.951c-0.901,2.295-1.522,4.704-1.852,7.172c0.263,1.968,0.714,3.939,1.382,5.891     c2.445,7.152,7.277,12.813,13.298,16.404c0.901-2.297,1.522-4.706,1.852-7.173c-0.263-1.969-0.714-3.941-1.381-5.892     C38.545,22.201,33.712,16.54,27.692,12.951z"/></g><g><path class="st150" d="M65.407,29.353c-0.667,1.95-1.119,3.923-1.381,5.892c0.329,2.467,0.95,4.876,1.851,7.173     c6.021-3.591,10.853-9.252,13.299-16.404c0.667-1.952,1.119-3.923,1.381-5.893c-0.328-2.467-0.949-4.875-1.851-7.17     C72.687,16.54,67.854,22.201,65.407,29.353z"/></g><g><path class="st205" d="M40.521,43.917c-0.268,0-0.533-0.072-0.769-0.212c-6.533-3.896-11.487-10.008-13.948-17.207     c-2.463-7.199-2.287-15.063,0.492-22.144c0.161-0.41,0.494-0.729,0.911-0.871c0.418-0.142,0.875-0.094,1.254,0.131     c6.533,3.896,11.487,10.006,13.949,17.204c2.461,7.201,2.285,15.065-0.493,22.146c-0.161,0.41-0.494,0.729-0.911,0.872     C40.848,43.891,40.684,43.917,40.521,43.917z M28.472,7.182c-1.913,5.954-1.863,12.4,0.17,18.346     c2.033,5.946,5.941,11.074,11.1,14.61c1.912-5.954,1.863-12.402-0.169-18.349C37.538,15.844,33.629,10.718,28.472,7.182z"/></g><g><path class="st205" d="M65.877,43.917c-0.163,0-0.327-0.027-0.485-0.081c-0.417-0.143-0.75-0.461-0.911-0.872     c-2.778-7.083-2.953-14.948-0.492-22.146c2.462-7.198,7.416-13.308,13.949-17.204c0.379-0.226,0.837-0.273,1.254-0.131     c0.417,0.143,0.75,0.461,0.911,0.871c2.779,7.08,2.954,14.944,0.492,22.144c-2.462,7.201-7.417,13.312-13.949,17.207     C66.41,43.846,66.145,43.917,65.877,43.917z M77.927,7.182c-5.157,3.536-9.066,8.663-11.101,14.608     c-2.032,5.945-2.081,12.393-0.17,18.349c5.158-3.536,9.066-8.663,11.101-14.61C79.79,19.581,79.839,13.135,77.927,7.182z"/></g><g><path class="st162" d="M79.412,97.802V59.708c0-13.422-10.92-24.343-24.341-24.343h-3.745c-13.421,0-24.34,10.921-24.34,24.343     v38.094c-1.712,1.854-2.767,4.324-2.767,7.046v8.628c0,5.748,4.658,10.404,10.404,10.404h37.15     c5.745,0,10.404-4.656,10.404-10.404v-8.628C82.179,102.126,81.124,99.656,79.412,97.802z"/></g><g><path class="st150" d="M79.412,97.802V66.13c0-13.422-10.92-24.342-24.341-24.342h-3.745c-13.421,0-24.34,10.92-24.34,24.342     v31.672v6.423c-1.712,1.854-2.767,4.325-2.767,7.046v2.205c0,5.748,4.658,10.404,10.404,10.404h37.15     c5.745,0,10.404-4.656,10.404-10.404v-2.205c0-2.721-1.055-5.191-2.767-7.046V97.802z"/></g><g><path class="st205" d="M71.774,125.38h-37.15c-6.564,0-11.904-5.34-11.904-11.904v-8.628c0-2.79,0.979-5.469,2.767-7.61V59.708     c0-14.25,11.592-25.843,25.84-25.843h3.745c14.249,0,25.841,11.593,25.841,25.843v37.529c1.788,2.141,2.767,4.821,2.767,7.61     v8.628C83.679,120.04,78.339,125.38,71.774,125.38z M51.326,36.866c-12.594,0-22.84,10.247-22.84,22.843v38.094     c0,0.377-0.143,0.741-0.398,1.018c-1.527,1.654-2.368,3.795-2.368,6.028v8.628c0,4.91,3.994,8.904,8.904,8.904h37.15     c4.91,0,8.904-3.995,8.904-8.904v-8.628c0-2.233-0.841-4.375-2.368-6.028c-0.256-0.277-0.398-0.64-0.398-1.018V59.708     c0-12.596-10.246-22.843-22.841-22.843H51.326z"/></g><g><polygon class="st162" points="123.701,74.407 96.271,62.734 69.867,82.824 82.148,88.053 52.103,113.933 110.572,94.064      96.817,88.21    "/></g><g><polygon class="st150" points="89.746,91.704 116.631,77.9 90.79,66.904 69.867,82.824 82.148,88.053 52.103,113.933      102.077,96.953    "/></g><g><path class="st205" d="M52.103,115.434c-0.625,0-1.208-0.394-1.42-1.018c-0.267-0.784,0.153-1.636,0.938-1.903l54.752-18.606     L96.23,89.591c-0.536-0.228-0.892-0.745-0.912-1.326c-0.021-0.582,0.296-1.123,0.813-1.389l24.037-12.342L96.486,64.456     L72.829,82.455l9.907,4.219c0.762,0.324,1.117,1.206,0.792,1.968c-0.325,0.762-1.202,1.118-1.968,0.792l-12.281-5.229     c-0.491-0.209-0.835-0.664-0.9-1.194c-0.066-0.53,0.154-1.056,0.58-1.379l26.404-20.09c0.43-0.328,1.001-0.396,1.495-0.187     l27.43,11.673c0.536,0.228,0.892,0.745,0.912,1.326c0.021,0.582-0.296,1.123-0.813,1.389l-24.038,12.342l10.811,4.601     c0.572,0.244,0.936,0.815,0.912,1.437s-0.428,1.164-1.017,1.364l-58.47,19.869C52.425,115.408,52.263,115.434,52.103,115.434z"/></g><g><path class="st205" d="M25.651,19.779c-0.251,0-0.502-0.063-0.729-0.189c-0.442-0.246-0.731-0.699-0.768-1.204     c-0.341-4.743,0.399-9.595,2.141-14.031c0.161-0.41,0.494-0.729,0.911-0.872c0.418-0.142,0.875-0.094,1.254,0.131     c3.503,2.089,6.556,4.823,9.074,8.125c0.268,0.351,0.367,0.802,0.272,1.233c-0.096,0.431-0.375,0.798-0.766,1.004l-10.691,5.629     C26.131,19.721,25.892,19.779,25.651,19.779z M28.472,7.183c-0.894,2.791-1.367,5.724-1.396,8.65l6.951-3.66     C32.382,10.262,30.522,8.591,28.472,7.183z"/></g><g><path class="st205" d="M27.692,4.903c-1.645,4.19-2.373,8.753-2.041,13.376l10.691-5.629C33.947,9.509,31.011,6.882,27.692,4.903     z"/></g><g><path class="st205" d="M80.747,19.779c-0.24,0-0.479-0.058-0.699-0.173l-10.691-5.629c-0.391-0.206-0.67-0.573-0.766-1.004     c-0.095-0.431,0.005-0.882,0.272-1.233c2.519-3.302,5.571-6.036,9.074-8.125c0.379-0.226,0.837-0.273,1.254-0.131     c0.417,0.143,0.75,0.461,0.911,0.872c1.741,4.437,2.481,9.289,2.141,14.031c-0.036,0.505-0.325,0.958-0.768,1.204     C81.249,19.716,80.998,19.779,80.747,19.779z M72.371,12.174l6.951,3.66c-0.028-2.926-0.502-5.859-1.396-8.65     C75.876,8.591,74.017,10.262,72.371,12.174z"/></g><g><path class="st205" d="M70.056,12.65l10.691,5.629c0.332-4.623-0.396-9.186-2.041-13.376C75.388,6.882,72.451,9.509,70.056,12.65     z"/></g><g><path class="st205" d="M45.159,66.063c-0.384,0-0.768-0.146-1.061-0.439c-0.586-0.585-0.586-1.535,0-2.121     c5.456-5.458,14.333-5.458,19.791-0.002c0.586,0.585,0.586,1.535,0,2.121s-1.535,0.586-2.121,0     c-4.286-4.287-11.264-4.285-15.549,0.002C45.927,65.917,45.543,66.063,45.159,66.063z"/></g><g><path class="st205" d="M62.829,78.059c-0.384,0-0.768-0.146-1.061-0.439c-4.287-4.286-11.262-4.286-15.549,0     c-0.586,0.586-1.535,0.586-2.121,0c-0.586-0.585-0.586-1.536,0-2.121c5.457-5.457,14.334-5.457,19.791,0     c0.586,0.585,0.586,1.536,0,2.121C63.597,77.913,63.213,78.059,62.829,78.059z"/></g></g><g><g><path class="st205" d="M35.981,131.597h-7.776c-0.828,0-1.5-0.671-1.5-1.5s0.672-1.5,1.5-1.5h7.776c0.828,0,1.5,0.671,1.5,1.5     S36.81,131.597,35.981,131.597z"/></g><g><path class="st205" d="M21.771,131.597h-0.09c-0.828,0-1.5-0.671-1.5-1.5s0.672-1.5,1.5-1.5s1.545,0.671,1.545,1.5     S22.599,131.597,21.771,131.597z"/></g><g><path class="st205" d="M16.58,131.597h-0.09c-0.828,0-1.5-0.671-1.5-1.5s0.672-1.5,1.5-1.5s1.545,0.671,1.545,1.5     S17.408,131.597,16.58,131.597z"/></g><g><path class="st205" d="M11.389,131.597h-0.09c-0.828,0-1.5-0.671-1.5-1.5s0.672-1.5,1.5-1.5s1.545,0.671,1.545,1.5     S12.217,131.597,11.389,131.597z"/></g></g></g></svg>